<svg width="212" height="76" viewBox="0 0 212 76" fill="none" xmlns="http://www.w3.org/2000/svg">
<path d="M80.4013 22.8993H83.9147V35.4261H80.4013V22.8993Z" fill="white"/>
<path d="M92.5184 25.5657C93.7132 25.5657 94.6714 25.9236 95.393 26.6394C96.1265 27.3553 96.4932 28.435 96.4932 29.8785V35.4261H93.1217V30.4333C93.1217 29.109 92.5953 28.4469 91.5425 28.4469C90.9628 28.4469 90.4955 28.6378 90.1407 29.0195C89.7976 29.4013 89.6261 29.974 89.6261 30.7375V35.4261H86.2546V25.7268H89.4664V26.7826C89.8449 26.3889 90.2944 26.0906 90.8149 25.8878C91.3355 25.6731 91.9033 25.5657 92.5184 25.5657Z" fill="white"/>
<path d="M102.283 26.0847H104.572V28.6258H102.372V35.4261H99.0003V28.6258H97.5985V26.0847H99.0003V25.8341C99.0003 24.653 99.3493 23.7165 100.047 23.0245C100.757 22.3326 101.745 21.9866 103.011 21.9866C103.436 21.9866 103.85 22.0284 104.253 22.1119C104.655 22.1954 104.986 22.3207 105.246 22.4877L104.412 24.8857C104.081 24.6948 103.744 24.5994 103.401 24.5994C103.046 24.5994 102.768 24.7067 102.567 24.9215C102.378 25.1362 102.283 25.4524 102.283 25.8699V26.0847Z" fill="white"/>
<path d="M110.541 35.5872C109.512 35.5872 108.583 35.3724 107.755 34.943C106.927 34.5135 106.277 33.9169 105.803 33.1534C105.342 32.3899 105.111 31.5249 105.111 30.5586C105.111 29.6041 105.342 28.7451 105.803 27.9816C106.277 27.2181 106.921 26.6275 107.738 26.2099C108.566 25.7805 109.5 25.5657 110.541 25.5657C111.582 25.5657 112.517 25.7805 113.345 26.2099C114.173 26.6275 114.818 27.2181 115.279 27.9816C115.74 28.7332 115.971 29.5922 115.971 30.5586C115.971 31.5249 115.74 32.3899 115.279 33.1534C114.818 33.9169 114.173 34.5135 113.345 34.943C112.517 35.3724 111.582 35.5872 110.541 35.5872ZM110.541 32.885C111.133 32.885 111.618 32.6822 111.996 32.2765C112.375 31.859 112.564 31.2863 112.564 30.5586C112.564 29.8427 112.375 29.282 111.996 28.8764C111.618 28.4707 111.133 28.2679 110.541 28.2679C109.95 28.2679 109.465 28.4707 109.086 28.8764C108.708 29.282 108.518 29.8427 108.518 30.5586C108.518 31.2863 108.708 31.859 109.086 32.2765C109.465 32.6822 109.95 32.885 110.541 32.885Z" fill="white"/>
<path d="M129.049 35.6767C127.748 35.6767 126.577 35.4023 125.536 34.8535C124.507 34.2928 123.696 33.5173 123.105 32.5271C122.513 31.5368 122.218 30.4154 122.218 29.1627C122.218 27.91 122.513 26.7886 123.105 25.7984C123.696 24.8081 124.507 24.0386 125.536 23.4898C126.577 22.9291 127.748 22.6487 129.049 22.6487C130.185 22.6487 131.208 22.8516 132.119 23.2572C133.03 23.6628 133.787 24.2474 134.39 25.0109L132.154 27.051C131.35 26.0727 130.374 25.5836 129.227 25.5836C128.552 25.5836 127.949 25.7327 127.417 26.031C126.896 26.3293 126.488 26.7528 126.192 27.3016C125.908 27.8384 125.766 28.4588 125.766 29.1627C125.766 29.8666 125.908 30.4929 126.192 31.0417C126.488 31.5786 126.896 31.9962 127.417 32.2944C127.949 32.5927 128.552 32.7418 129.227 32.7418C130.374 32.7418 131.35 32.2527 132.154 31.2744L134.39 33.3145C133.787 34.078 133.03 34.6626 132.119 35.0682C131.208 35.4739 130.185 35.6767 129.049 35.6767Z" fill="white"/>
<path d="M140.329 35.5872C139.3 35.5872 138.371 35.3724 137.543 34.943C136.715 34.5135 136.064 33.9169 135.591 33.1534C135.13 32.3899 134.899 31.5249 134.899 30.5586C134.899 29.6041 135.13 28.7451 135.591 27.9816C136.064 27.2181 136.709 26.6275 137.525 26.2099C138.353 25.7805 139.288 25.5657 140.329 25.5657C141.37 25.5657 142.305 25.7805 143.133 26.2099C143.961 26.6275 144.605 27.2181 145.067 27.9816C145.528 28.7332 145.759 29.5922 145.759 30.5586C145.759 31.5249 145.528 32.3899 145.067 33.1534C144.605 33.9169 143.961 34.5135 143.133 34.943C142.305 35.3724 141.37 35.5872 140.329 35.5872ZM140.329 32.885C140.921 32.885 141.406 32.6822 141.784 32.2765C142.163 31.859 142.352 31.2863 142.352 30.5586C142.352 29.8427 142.163 29.282 141.784 28.8764C141.406 28.4707 140.921 28.2679 140.329 28.2679C139.738 28.2679 139.253 28.4707 138.874 28.8764C138.495 29.282 138.306 29.8427 138.306 30.5586C138.306 31.2863 138.495 31.859 138.874 32.2765C139.253 32.6822 139.738 32.885 140.329 32.885Z" fill="white"/>
<path d="M157.193 25.7268L153.218 35.4261H149.74L145.783 25.7268H149.243L151.55 31.6502L153.981 25.7268H157.193Z" fill="white"/>
<path d="M158.064 25.7268H161.436V35.4261H158.064V25.7268ZM159.75 24.653C159.135 24.653 158.638 24.48 158.26 24.1341C157.881 23.7881 157.692 23.3586 157.692 22.8456C157.692 22.3326 157.881 21.9031 158.26 21.5571C158.638 21.2111 159.135 21.0381 159.75 21.0381C160.365 21.0381 160.862 21.2052 161.241 21.5392C161.619 21.8613 161.808 22.2789 161.808 22.7919C161.808 23.3288 161.619 23.7762 161.241 24.1341C160.862 24.48 160.365 24.653 159.75 24.653Z" fill="white"/>
<path d="M173.848 22.1477V35.4261H170.636V34.4598C170.009 35.2114 169.068 35.5872 167.815 35.5872C166.939 35.5872 166.141 35.3844 165.419 34.9787C164.697 34.5612 164.124 33.9706 163.698 33.2071C163.284 32.4435 163.077 31.5607 163.077 30.5586C163.077 29.5564 163.284 28.6795 163.698 27.9279C164.124 27.1644 164.697 26.5798 165.419 26.1742C166.141 25.7685 166.939 25.5657 167.815 25.5657C168.962 25.5657 169.849 25.8998 170.476 26.5679V22.1477H173.848ZM168.524 32.885C169.104 32.885 169.583 32.6822 169.962 32.2765C170.34 31.859 170.529 31.2863 170.529 30.5586C170.529 29.8427 170.34 29.282 169.962 28.8764C169.595 28.4707 169.116 28.2679 168.524 28.2679C167.933 28.2679 167.448 28.4707 167.069 28.8764C166.691 29.282 166.501 29.8427 166.501 30.5586C166.501 31.2863 166.691 31.859 167.069 32.2765C167.448 32.6822 167.933 32.885 168.524 32.885Z" fill="white"/>
<path d="M175.786 29.0195H180.968V31.6323H175.786V29.0195Z" fill="white"/>
<path d="M187.325 22.8993V35.4261H183.811V25.6373H181.504V22.8993H187.325Z" fill="white"/>
<path d="M193.735 22.6487C195.522 22.6487 196.929 23.1796 197.958 24.2414C198.988 25.3032 199.502 26.8303 199.502 28.8227C199.502 30.2543 199.224 31.4891 198.668 32.5271C198.124 33.5531 197.349 34.3345 196.344 34.8714C195.35 35.4082 194.197 35.6767 192.884 35.6767C192.186 35.6767 191.517 35.5932 190.878 35.4261C190.24 35.271 189.695 35.0503 189.246 34.764L190.523 32.2228C191.127 32.6523 191.89 32.8671 192.813 32.8671C193.7 32.8671 194.415 32.6225 194.96 32.1334C195.516 31.6323 195.841 30.9105 195.936 29.968C195.226 30.5765 194.297 30.8807 193.15 30.8807C192.369 30.8807 191.653 30.7196 191.003 30.3975C190.352 30.0634 189.831 29.5982 189.441 29.0016C189.063 28.3932 188.873 27.7012 188.873 26.9258C188.873 26.0787 189.086 25.3331 189.512 24.6888C189.95 24.0327 190.535 23.5316 191.269 23.1856C192.014 22.8277 192.836 22.6487 193.735 22.6487ZM193.984 28.3395C194.492 28.3395 194.906 28.1963 195.226 27.91C195.545 27.6118 195.705 27.224 195.705 26.7468C195.705 26.2815 195.545 25.9057 195.226 25.6194C194.918 25.3211 194.498 25.172 193.966 25.172C193.469 25.172 193.061 25.3152 192.742 25.6015C192.434 25.8878 192.28 26.2756 192.28 26.7647C192.28 27.2419 192.434 27.6237 192.742 27.91C193.061 28.1963 193.475 28.3395 193.984 28.3395Z" fill="white"/>
<path d="M86.0795 44.3739C87.2033 44.3739 88.1793 44.5648 89.0074 44.9465C89.8354 45.3164 90.4742 45.8532 90.9238 46.5571C91.3733 47.2491 91.5981 48.0663 91.5981 49.0088C91.5981 49.9513 91.3733 50.7685 90.9238 51.4605C90.4742 52.1525 89.8354 52.6893 89.0074 53.0711C88.1793 53.4409 87.2033 53.6259 86.0795 53.6259H83.9147V56.9007H80.4013V44.3739H86.0795ZM85.8666 50.8342C86.5882 50.8342 87.1324 50.6791 87.4991 50.3689C87.8658 50.0468 88.0492 49.5934 88.0492 49.0088C88.0492 48.4242 87.8658 47.9709 87.4991 47.6488C87.1324 47.3266 86.5882 47.1656 85.8666 47.1656H83.9147V50.8342H85.8666Z" fill="white"/>
<path d="M97.9606 57.0618C96.9314 57.0618 96.0028 56.8471 95.1747 56.4176C94.3466 55.9881 93.696 55.3916 93.2228 54.628C92.7614 53.8645 92.5308 52.9995 92.5308 52.0332C92.5308 51.0787 92.7614 50.2198 93.2228 49.4562C93.696 48.6927 94.3407 48.1021 95.1569 47.6846C95.985 47.2551 96.9196 47.0403 97.9606 47.0403C99.0016 47.0403 99.9361 47.2551 100.764 47.6846C101.592 48.1021 102.237 48.6927 102.698 49.4562C103.16 50.2078 103.39 51.0668 103.39 52.0332C103.39 52.9995 103.16 53.8645 102.698 54.628C102.237 55.3916 101.592 55.9881 100.764 56.4176C99.9361 56.8471 99.0016 57.0618 97.9606 57.0618ZM97.9606 54.3596C98.5521 54.3596 99.0371 54.1568 99.4156 53.7511C99.7942 53.3336 99.9834 52.7609 99.9834 52.0332C99.9834 51.3173 99.7942 50.7566 99.4156 50.351C99.0371 49.9454 98.5521 49.7425 97.9606 49.7425C97.3691 49.7425 96.8841 49.9454 96.5055 50.351C96.127 50.7566 95.9377 51.3173 95.9377 52.0332C95.9377 52.7609 96.127 53.3336 96.5055 53.7511C96.8841 54.1568 97.3691 54.3596 97.9606 54.3596Z" fill="white"/>
<path d="M111.216 47.0403C112.411 47.0403 113.369 47.3982 114.091 48.114C114.824 48.8299 115.191 49.9096 115.191 51.3531V56.9007H111.819V51.9079C111.819 50.5836 111.293 49.9215 110.24 49.9215C109.66 49.9215 109.193 50.1124 108.838 50.4941C108.495 50.8759 108.324 51.4486 108.324 52.2121V56.9007H104.952V47.2014H108.164V48.2572C108.542 47.8635 108.992 47.5652 109.513 47.3624C110.033 47.1477 110.601 47.0403 111.216 47.0403Z" fill="white"/>
<path d="M122.273 57.0618C121.243 57.0618 120.315 56.8471 119.487 56.4176C118.659 55.9881 118.008 55.3916 117.535 54.628C117.073 53.8645 116.843 52.9995 116.843 52.0332C116.843 51.0787 117.073 50.2198 117.535 49.4562C118.008 48.6927 118.653 48.1021 119.469 47.6846C120.297 47.2551 121.232 47.0403 122.273 47.0403C123.314 47.0403 124.248 47.2551 125.076 47.6846C125.904 48.1021 126.549 48.6927 127.01 49.4562C127.472 50.2078 127.702 51.0668 127.702 52.0332C127.702 52.9995 127.472 53.8645 127.01 54.628C126.549 55.3916 125.904 55.9881 125.076 56.4176C124.248 56.8471 123.314 57.0618 122.273 57.0618ZM122.273 54.3596C122.864 54.3596 123.349 54.1568 123.728 53.7511C124.106 53.3336 124.295 52.7609 124.295 52.0332C124.295 51.3173 124.106 50.7566 123.728 50.351C123.349 49.9454 122.864 49.7425 122.273 49.7425C121.681 49.7425 121.196 49.9454 120.818 50.351C120.439 50.7566 120.25 51.3173 120.25 52.0332C120.25 52.7609 120.439 53.3336 120.818 53.7511C121.196 54.1568 121.681 54.3596 122.273 54.3596Z" fill="white"/>
<path d="M132.476 48.3646C132.819 47.9232 133.263 47.5951 133.807 47.3803C134.363 47.1537 134.996 47.0403 135.705 47.0403V50.1004C135.398 50.0647 135.144 50.0468 134.942 50.0468C134.221 50.0468 133.653 50.2436 133.239 50.6373C132.837 51.031 132.636 51.6335 132.636 52.4448V56.9007H129.264V47.2014H132.476V48.3646Z" fill="white"/>
<path d="M141.837 57.0618C140.807 57.0618 139.879 56.8471 139.051 56.4176C138.223 55.9881 137.572 55.3916 137.099 54.628C136.637 53.8645 136.407 52.9995 136.407 52.0332C136.407 51.0787 136.637 50.2198 137.099 49.4562C137.572 48.6927 138.217 48.1021 139.033 47.6846C139.861 47.2551 140.796 47.0403 141.837 47.0403C142.878 47.0403 143.812 47.2551 144.64 47.6846C145.468 48.1021 146.113 48.6927 146.574 49.4562C147.036 50.2078 147.266 51.0668 147.266 52.0332C147.266 52.9995 147.036 53.8645 146.574 54.628C146.113 55.3916 145.468 55.9881 144.64 56.4176C143.812 56.8471 142.878 57.0618 141.837 57.0618ZM141.837 54.3596C142.428 54.3596 142.913 54.1568 143.292 53.7511C143.67 53.3336 143.859 52.7609 143.859 52.0332C143.859 51.3173 143.67 50.7566 143.292 50.351C142.913 49.9454 142.428 49.7425 141.837 49.7425C141.245 49.7425 140.76 49.9454 140.382 50.351C140.003 50.7566 139.814 51.3173 139.814 52.0332C139.814 52.7609 140.003 53.3336 140.382 53.7511C140.76 54.1568 141.245 54.3596 141.837 54.3596Z" fill="white"/>
<path d="M159.173 47.2014V55.1291C159.173 56.9306 158.688 58.2787 157.718 59.1735C156.748 60.0802 155.352 60.5335 153.531 60.5335C152.584 60.5335 151.697 60.4262 150.869 60.2114C150.041 59.9967 149.337 59.6805 148.757 59.2629L149.982 56.8828C150.372 57.205 150.863 57.4555 151.454 57.6345C152.058 57.8253 152.649 57.9208 153.229 57.9208C154.116 57.9208 154.767 57.7239 155.181 57.3302C155.595 56.9365 155.802 56.3519 155.802 55.5765V55.2544C155.151 56.0179 154.199 56.3997 152.945 56.3997C152.093 56.3997 151.307 56.2088 150.585 55.827C149.863 55.4333 149.29 54.8845 148.864 54.1806C148.438 53.4648 148.225 52.6416 148.225 51.711C148.225 50.7924 148.438 49.9811 148.864 49.2773C149.29 48.5614 149.863 48.0126 150.585 47.6309C151.307 47.2372 152.093 47.0403 152.945 47.0403C154.317 47.0403 155.323 47.4877 155.962 48.3825V47.2014H159.173ZM153.743 53.6974C154.347 53.6974 154.844 53.5125 155.234 53.1427C155.636 52.7728 155.837 52.2956 155.837 51.711C155.837 51.1265 155.642 50.6552 155.252 50.2973C154.861 49.9275 154.359 49.7425 153.743 49.7425C153.128 49.7425 152.62 49.9275 152.217 50.2973C151.827 50.6552 151.632 51.1265 151.632 51.711C151.632 52.2956 151.833 52.7728 152.235 53.1427C152.637 53.5125 153.14 53.6974 153.743 53.6974Z" fill="white"/>
<path d="M166.166 57.0618C165.137 57.0618 164.208 56.8471 163.38 56.4176C162.552 55.9881 161.901 55.3916 161.428 54.628C160.967 53.8645 160.736 52.9995 160.736 52.0332C160.736 51.0787 160.967 50.2198 161.428 49.4562C161.901 48.6927 162.546 48.1021 163.362 47.6846C164.19 47.2551 165.125 47.0403 166.166 47.0403C167.207 47.0403 168.142 47.2551 168.97 47.6846C169.798 48.1021 170.442 48.6927 170.904 49.4562C171.365 50.2078 171.596 51.0668 171.596 52.0332C171.596 52.9995 171.365 53.8645 170.904 54.628C170.442 55.3916 169.798 55.9881 168.97 56.4176C168.142 56.8471 167.207 57.0618 166.166 57.0618ZM166.166 54.3596C166.757 54.3596 167.242 54.1568 167.621 53.7511C168 53.3336 168.189 52.7609 168.189 52.0332C168.189 51.3173 168 50.7566 167.621 50.351C167.242 49.9454 166.757 49.7425 166.166 49.7425C165.574 49.7425 165.089 49.9454 164.711 50.351C164.332 50.7566 164.143 51.3173 164.143 52.0332C164.143 52.7609 164.332 53.3336 164.711 53.7511C165.089 54.1568 165.574 54.3596 166.166 54.3596Z" fill="white"/>
<path d="M79.998 68.5066H81.181V73.6032H79.998V68.5066ZM80.5943 67.6667C80.3797 67.6667 80.1999 67.5999 80.0548 67.4662C79.9097 67.3263 79.8372 67.1545 79.8372 66.9509C79.8372 66.7472 79.9097 66.5786 80.0548 66.445C80.1999 66.305 80.3797 66.235 80.5943 66.235C80.8088 66.235 80.9886 66.3018 81.1337 66.4355C81.2788 66.5627 81.3514 66.725 81.3514 66.9222C81.3514 67.1322 81.2788 67.3104 81.1337 67.4567C80.9949 67.5967 80.8151 67.6667 80.5943 67.6667Z" fill="white"/>
<path d="M86.5475 68.4493C87.1848 68.4493 87.6958 68.637 88.0807 69.0124C88.4655 69.3878 88.6579 69.9446 88.6579 70.6827V73.6032H87.475V70.8354C87.475 70.39 87.3709 70.0559 87.1627 69.8332C86.9545 69.6042 86.6579 69.4896 86.2731 69.4896C85.8378 69.4896 85.4939 69.6233 85.2415 69.8905C84.9892 70.1514 84.863 70.53 84.863 71.0263V73.6032H83.68V68.5066H84.8062V69.1651C85.0018 68.9297 85.2478 68.7515 85.5444 68.6306C85.8409 68.5098 86.1753 68.4493 86.5475 68.4493Z" fill="white"/>
<path d="M93.1586 67.4185C92.6602 67.4185 92.411 67.6921 92.411 68.2393V68.5447H93.8022V69.4992H92.4488V73.6032H91.2659V69.4992H90.4331V68.5447H91.2659V68.2202C91.2659 67.673 91.4236 67.2435 91.7391 66.9318C92.0545 66.6136 92.4993 66.4546 93.0734 66.4546C93.5277 66.4546 93.8842 66.5468 94.1428 66.7313L93.8116 67.6285C93.6097 67.4885 93.3921 67.4185 93.1586 67.4185Z" fill="white"/>
<path d="M97.7422 73.67C97.2311 73.67 96.7706 73.5587 96.3605 73.336C95.9504 73.1133 95.6286 72.8047 95.3952 72.4102C95.168 72.0093 95.0545 71.5576 95.0545 71.0549C95.0545 70.5522 95.168 70.1036 95.3952 69.7092C95.6286 69.3147 95.9504 69.0061 96.3605 68.7834C96.7706 68.5607 97.2311 68.4493 97.7422 68.4493C98.2595 68.4493 98.7232 68.5607 99.1333 68.7834C99.5434 69.0061 99.862 69.3147 100.089 69.7092C100.323 70.1036 100.439 70.5522 100.439 71.0549C100.439 71.5576 100.323 72.0093 100.089 72.4102C99.862 72.8047 99.5434 73.1133 99.1333 73.336C98.7232 73.5587 98.2595 73.67 97.7422 73.67ZM97.7422 72.6488C98.1775 72.6488 98.5371 72.5024 98.821 72.2097C99.1049 71.9171 99.2469 71.5321 99.2469 71.0549C99.2469 70.5777 99.1049 70.1927 98.821 69.9C98.5371 69.6073 98.1775 69.461 97.7422 69.461C97.3068 69.461 96.9472 69.6073 96.6633 69.9C96.3857 70.1927 96.2469 70.5777 96.2469 71.0549C96.2469 71.5321 96.3857 71.9171 96.6633 72.2097C96.9472 72.5024 97.3068 72.6488 97.7422 72.6488Z" fill="white"/>
<path d="M104.836 73.67C104.312 73.67 103.842 73.5587 103.425 73.336C103.009 73.1133 102.684 72.8047 102.451 72.4102C102.217 72.0093 102.101 71.5576 102.101 71.0549C102.101 70.5522 102.217 70.1036 102.451 69.7092C102.684 69.3147 103.006 69.0061 103.416 68.7834C103.832 68.5607 104.306 68.4493 104.836 68.4493C105.334 68.4493 105.769 68.5511 106.142 68.7547C106.52 68.9583 106.804 69.251 106.993 69.6328L106.085 70.1673C105.94 69.9318 105.757 69.7569 105.536 69.6423C105.321 69.5214 105.085 69.461 104.826 69.461C104.384 69.461 104.018 69.6073 103.728 69.9C103.438 70.1864 103.293 70.5713 103.293 71.0549C103.293 71.5385 103.435 71.9266 103.719 72.2193C104.009 72.5056 104.378 72.6488 104.826 72.6488C105.085 72.6488 105.321 72.5915 105.536 72.477C105.757 72.3561 105.94 72.1779 106.085 71.9425L106.993 72.477C106.798 72.8588 106.511 73.1546 106.132 73.3646C105.76 73.5682 105.328 73.67 104.836 73.67Z" fill="white"/>
<path d="M111.16 73.67C110.649 73.67 110.188 73.5587 109.778 73.336C109.368 73.1133 109.046 72.8047 108.813 72.4102C108.585 72.0093 108.472 71.5576 108.472 71.0549C108.472 70.5522 108.585 70.1036 108.813 69.7092C109.046 69.3147 109.368 69.0061 109.778 68.7834C110.188 68.5607 110.649 68.4493 111.16 68.4493C111.677 68.4493 112.141 68.5607 112.551 68.7834C112.961 69.0061 113.279 69.3147 113.507 69.7092C113.74 70.1036 113.857 70.5522 113.857 71.0549C113.857 71.5576 113.74 72.0093 113.507 72.4102C113.279 72.8047 112.961 73.1133 112.551 73.336C112.141 73.5587 111.677 73.67 111.16 73.67ZM111.16 72.6488C111.595 72.6488 111.955 72.5024 112.238 72.2097C112.522 71.9171 112.664 71.5321 112.664 71.0549C112.664 70.5777 112.522 70.1927 112.238 69.9C111.955 69.6073 111.595 69.461 111.16 69.461C110.724 69.461 110.365 69.6073 110.081 69.9C109.803 70.1927 109.664 70.5777 109.664 71.0549C109.664 71.5321 109.803 71.9171 110.081 72.2097C110.365 72.5024 110.724 72.6488 111.16 72.6488Z" fill="white"/>
<path d="M120.528 68.5066L118.36 73.6032H117.14L114.972 68.5066H116.203L117.774 72.2861L119.392 68.5066H120.528Z" fill="white"/>
<path d="M122.213 68.5066H123.396V73.6032H122.213V68.5066ZM122.81 67.6667C122.595 67.6667 122.415 67.5999 122.27 67.4662C122.125 67.3263 122.052 67.1545 122.052 66.9509C122.052 66.7472 122.125 66.5786 122.27 66.445C122.415 66.305 122.595 66.235 122.81 66.235C123.024 66.235 123.204 66.3018 123.349 66.4355C123.494 66.5627 123.567 66.725 123.567 66.9222C123.567 67.1322 123.494 67.3104 123.349 67.4567C123.21 67.5967 123.03 67.6667 122.81 67.6667Z" fill="white"/>
<path d="M130.845 66.5214V73.6032H129.709V72.9447C129.514 73.1864 129.271 73.3678 128.98 73.4887C128.697 73.6096 128.381 73.67 128.034 73.67C127.548 73.67 127.11 73.5619 126.719 73.3455C126.334 73.1292 126.031 72.8238 125.81 72.4293C125.589 72.0284 125.479 71.5703 125.479 71.0549C125.479 70.5395 125.589 70.0846 125.81 69.6901C126.031 69.2956 126.334 68.9901 126.719 68.7738C127.11 68.5575 127.548 68.4493 128.034 68.4493C128.368 68.4493 128.674 68.5066 128.952 68.6211C129.23 68.7356 129.466 68.9074 129.662 69.1365V66.5214H130.845ZM128.176 72.6488C128.46 72.6488 128.715 72.5852 128.943 72.4579C129.17 72.3243 129.35 72.1366 129.482 71.8948C129.615 71.653 129.681 71.373 129.681 71.0549C129.681 70.7367 129.615 70.4568 129.482 70.215C129.35 69.9732 129.17 69.7887 128.943 69.6614C128.715 69.5278 128.46 69.461 128.176 69.461C127.892 69.461 127.637 69.5278 127.409 69.6614C127.182 69.7887 127.003 69.9732 126.87 70.215C126.738 70.4568 126.671 70.7367 126.671 71.0549C126.671 71.373 126.738 71.653 126.87 71.8948C127.003 72.1366 127.182 72.3243 127.409 72.4579C127.637 72.5852 127.892 72.6488 128.176 72.6488Z" fill="white"/>
<path d="M135.269 66.9222V73.6032H134.039V67.9625H132.638V66.9222H135.269Z" fill="white"/>
<path d="M139.763 66.8268C140.672 66.8268 141.375 67.1131 141.874 67.6858C142.378 68.2584 142.631 69.0792 142.631 70.1482C142.631 70.899 142.495 71.5416 142.224 72.0761C141.953 72.6042 141.571 73.0083 141.079 73.2883C140.593 73.5619 140.028 73.6987 139.385 73.6987C139.044 73.6987 138.722 73.6637 138.419 73.5937C138.123 73.5173 137.864 73.4091 137.643 73.2692L138.098 72.3338C138.426 72.5502 138.845 72.6583 139.356 72.6583C139.994 72.6583 140.492 72.4611 140.852 72.0666C141.211 71.6721 141.391 71.1026 141.391 70.3582V70.3486C141.195 70.5777 140.946 70.7527 140.643 70.8735C140.341 70.9881 140 71.0453 139.621 71.0453C139.186 71.0453 138.795 70.9626 138.448 70.7972C138.101 70.6254 137.83 70.3836 137.634 70.0718C137.438 69.7601 137.341 69.4006 137.341 68.9933C137.341 68.5607 137.448 68.1821 137.662 67.8576C137.877 67.5267 138.167 67.2722 138.533 67.094C138.899 66.9159 139.309 66.8268 139.763 66.8268ZM139.858 70.0718C140.255 70.0718 140.577 69.9637 140.823 69.7473C141.076 69.531 141.202 69.2574 141.202 68.9265C141.202 68.602 141.079 68.3348 140.833 68.1248C140.593 67.9085 140.259 67.8003 139.83 67.8003C139.445 67.8003 139.132 67.9053 138.893 68.1153C138.653 68.3189 138.533 68.5925 138.533 68.9361C138.533 69.286 138.653 69.5628 138.893 69.7664C139.132 69.97 139.454 70.0718 139.858 70.0718Z" fill="white"/>
<path d="M147.57 68.4493C148.063 68.4493 148.501 68.5575 148.886 68.7738C149.277 68.9901 149.583 69.2956 149.804 69.6901C150.025 70.0846 150.135 70.5395 150.135 71.0549C150.135 71.5703 150.025 72.0284 149.804 72.4293C149.583 72.8238 149.277 73.1292 148.886 73.3455C148.501 73.5619 148.063 73.67 147.57 73.67C146.889 73.67 146.35 73.441 145.952 72.9828V75.4548H144.769V68.5066H145.895V69.1747C146.091 68.9329 146.331 68.7515 146.615 68.6306C146.905 68.5098 147.223 68.4493 147.57 68.4493ZM147.438 72.6488C147.873 72.6488 148.23 72.5024 148.507 72.2097C148.791 71.9171 148.933 71.5321 148.933 71.0549C148.933 70.5777 148.791 70.1927 148.507 69.9C148.23 69.6073 147.873 69.461 147.438 69.461C147.154 69.461 146.898 69.5278 146.671 69.6614C146.444 69.7887 146.264 69.9732 146.132 70.215C145.999 70.4568 145.933 70.7367 145.933 71.0549C145.933 71.373 145.999 71.653 146.132 71.8948C146.264 72.1366 146.444 72.3243 146.671 72.4579C146.898 72.5852 147.154 72.6488 147.438 72.6488Z" fill="white"/>
<path d="M154.475 73.67C153.964 73.67 153.503 73.5587 153.093 73.336C152.683 73.1133 152.361 72.8047 152.128 72.4102C151.901 72.0093 151.787 71.5576 151.787 71.0549C151.787 70.5522 151.901 70.1036 152.128 69.7092C152.361 69.3147 152.683 69.0061 153.093 68.7834C153.503 68.5607 153.964 68.4493 154.475 68.4493C154.992 68.4493 155.456 68.5607 155.866 68.7834C156.276 69.0061 156.595 69.3147 156.822 69.7092C157.055 70.1036 157.172 70.5522 157.172 71.0549C157.172 71.5576 157.055 72.0093 156.822 72.4102C156.595 72.8047 156.276 73.1133 155.866 73.336C155.456 73.5587 154.992 73.67 154.475 73.67ZM154.475 72.6488C154.91 72.6488 155.27 72.5024 155.554 72.2097C155.837 71.9171 155.979 71.5321 155.979 71.0549C155.979 70.5777 155.837 70.1927 155.554 69.9C155.27 69.6073 154.91 69.461 154.475 69.461C154.039 69.461 153.68 69.6073 153.396 69.9C153.118 70.1927 152.979 70.5777 152.979 71.0549C152.979 71.5321 153.118 71.9171 153.396 72.2097C153.68 72.5024 154.039 72.6488 154.475 72.6488Z" fill="white"/>
<path d="M162.117 68.4493C162.754 68.4493 163.265 68.637 163.65 69.0124C164.035 69.3878 164.227 69.9446 164.227 70.6827V73.6032H163.044V70.8354C163.044 70.39 162.94 70.0559 162.732 69.8332C162.524 69.6042 162.227 69.4896 161.842 69.4896C161.407 69.4896 161.063 69.6233 160.811 69.8905C160.559 70.1514 160.432 70.53 160.432 71.0263V73.6032H159.249V68.5066H160.376V69.1651C160.571 68.9297 160.817 68.7515 161.114 68.6306C161.41 68.5098 161.745 68.4493 162.117 68.4493Z" fill="white"/>
<path d="M168.992 73.67C168.481 73.67 168.02 73.5587 167.61 73.336C167.2 73.1133 166.878 72.8047 166.645 72.4102C166.418 72.0093 166.304 71.5576 166.304 71.0549C166.304 70.5522 166.418 70.1036 166.645 69.7092C166.878 69.3147 167.2 69.0061 167.61 68.7834C168.02 68.5607 168.481 68.4493 168.992 68.4493C169.509 68.4493 169.973 68.5607 170.383 68.7834C170.793 69.0061 171.112 69.3147 171.339 69.7092C171.572 70.1036 171.689 70.5522 171.689 71.0549C171.689 71.5576 171.572 72.0093 171.339 72.4102C171.112 72.8047 170.793 73.1133 170.383 73.336C169.973 73.5587 169.509 73.67 168.992 73.67ZM168.992 72.6488C169.427 72.6488 169.787 72.5024 170.071 72.2097C170.355 71.9171 170.497 71.5321 170.497 71.0549C170.497 70.5777 170.355 70.1927 170.071 69.9C169.787 69.6073 169.427 69.461 168.992 69.461C168.557 69.461 168.197 69.6073 167.913 69.9C167.635 70.1927 167.497 70.5777 167.497 71.0549C167.497 71.5321 167.635 71.9171 167.913 72.2097C168.197 72.5024 168.557 72.6488 168.992 72.6488Z" fill="white"/>
<path d="M174.893 69.251C175.233 68.7165 175.833 68.4493 176.691 68.4493V69.5851C176.59 69.566 176.498 69.5564 176.416 69.5564C175.956 69.5564 175.596 69.6932 175.338 69.9668C175.079 70.2341 174.95 70.6222 174.95 71.1312V73.6032H173.767V68.5066H174.893V69.251Z" fill="white"/>
<path d="M180.866 73.67C180.355 73.67 179.894 73.5587 179.484 73.336C179.074 73.1133 178.752 72.8047 178.519 72.4102C178.292 72.0093 178.178 71.5576 178.178 71.0549C178.178 70.5522 178.292 70.1036 178.519 69.7092C178.752 69.3147 179.074 69.0061 179.484 68.7834C179.894 68.5607 180.355 68.4493 180.866 68.4493C181.383 68.4493 181.847 68.5607 182.257 68.7834C182.667 69.0061 182.986 69.3147 183.213 69.7092C183.446 70.1036 183.563 70.5522 183.563 71.0549C183.563 71.5576 183.446 72.0093 183.213 72.4102C182.986 72.8047 182.667 73.1133 182.257 73.336C181.847 73.5587 181.383 73.67 180.866 73.67ZM180.866 72.6488C181.301 72.6488 181.661 72.5024 181.945 72.2097C182.229 71.9171 182.371 71.5321 182.371 71.0549C182.371 70.5777 182.229 70.1927 181.945 69.9C181.661 69.6073 181.301 69.461 180.866 69.461C180.431 69.461 180.071 69.6073 179.787 69.9C179.509 70.1927 179.371 70.5777 179.371 71.0549C179.371 71.5321 179.509 71.9171 179.787 72.2097C180.071 72.5024 180.431 72.6488 180.866 72.6488Z" fill="white"/>
<path d="M190.656 68.5066V72.8301C190.656 74.6244 189.748 75.5216 187.931 75.5216C187.445 75.5216 186.984 75.458 186.549 75.3307C186.114 75.2098 185.754 75.0317 185.47 74.7962L186 73.8991C186.221 74.0836 186.499 74.23 186.833 74.3381C187.174 74.4527 187.518 74.5099 187.865 74.5099C188.42 74.5099 188.827 74.3827 189.085 74.1281C189.344 73.8736 189.473 73.4855 189.473 72.9637V72.6965C189.272 72.9192 189.025 73.0878 188.735 73.2024C188.445 73.3169 188.126 73.3741 187.779 73.3741C187.3 73.3741 186.865 73.2723 186.473 73.0687C186.089 72.8588 185.783 72.5661 185.555 72.1907C185.335 71.8153 185.224 71.3858 185.224 70.9022C185.224 70.4186 185.335 69.9923 185.555 69.6233C185.783 69.2478 186.089 68.9583 186.473 68.7547C186.865 68.5511 187.3 68.4493 187.779 68.4493C188.145 68.4493 188.477 68.5098 188.773 68.6306C189.076 68.7515 189.328 68.9361 189.53 69.1842V68.5066H190.656ZM187.959 72.3625C188.407 72.3625 188.773 72.2288 189.057 71.9616C189.347 71.688 189.492 71.3349 189.492 70.9022C189.492 70.4759 189.347 70.1291 189.057 69.8619C188.773 69.5946 188.407 69.461 187.959 69.461C187.505 69.461 187.133 69.5946 186.843 69.8619C186.559 70.1291 186.417 70.4759 186.417 70.9022C186.417 71.3349 186.559 71.688 186.843 71.9616C187.133 72.2288 187.505 72.3625 187.959 72.3625Z" fill="white"/>
<path d="M195.429 73.67C194.918 73.67 194.458 73.5587 194.048 73.336C193.638 73.1133 193.316 72.8047 193.082 72.4102C192.855 72.0093 192.742 71.5576 192.742 71.0549C192.742 70.5522 192.855 70.1036 193.082 69.7092C193.316 69.3147 193.638 69.0061 194.048 68.7834C194.458 68.5607 194.918 68.4493 195.429 68.4493C195.947 68.4493 196.41 68.5607 196.82 68.7834C197.231 69.0061 197.549 69.3147 197.776 69.7092C198.01 70.1036 198.126 70.5522 198.126 71.0549C198.126 71.5576 198.01 72.0093 197.776 72.4102C197.549 72.8047 197.231 73.1133 196.82 73.336C196.41 73.5587 195.947 73.67 195.429 73.67ZM195.429 72.6488C195.865 72.6488 196.224 72.5024 196.508 72.2097C196.792 71.9171 196.934 71.5321 196.934 71.0549C196.934 70.5777 196.792 70.1927 196.508 69.9C196.224 69.6073 195.865 69.461 195.429 69.461C194.994 69.461 194.634 69.6073 194.35 69.9C194.073 70.1927 193.934 70.5777 193.934 71.0549C193.934 71.5321 194.073 71.9171 194.35 72.2097C194.634 72.5024 194.994 72.6488 195.429 72.6488Z" fill="white"/>
<path d="M200.49 73.67C200.276 73.67 200.093 73.5968 199.941 73.4505C199.79 73.2978 199.714 73.1069 199.714 72.8778C199.714 72.6424 199.787 72.4515 199.932 72.3052C200.083 72.1588 200.269 72.0857 200.49 72.0857C200.711 72.0857 200.894 72.1588 201.039 72.3052C201.19 72.4515 201.266 72.6424 201.266 72.8778C201.266 73.1069 201.19 73.2978 201.039 73.4505C200.888 73.5968 200.705 73.67 200.49 73.67Z" fill="white"/>
<path d="M203.368 68.5066H204.551V73.6032H203.368V68.5066ZM203.965 67.6667C203.75 67.6667 203.57 67.5999 203.425 67.4662C203.28 67.3263 203.208 67.1545 203.208 66.9509C203.208 66.7472 203.28 66.5786 203.425 66.445C203.57 66.305 203.75 66.235 203.965 66.235C204.179 66.235 204.359 66.3018 204.504 66.4355C204.649 66.5627 204.722 66.725 204.722 66.9222C204.722 67.1322 204.649 67.3104 204.504 67.4567C204.365 67.5967 204.186 67.6667 203.965 67.6667Z" fill="white"/>
<path d="M212 66.5214V73.6032H210.864V72.9447C210.669 73.1864 210.426 73.3678 210.136 73.4887C209.852 73.6096 209.536 73.67 209.189 73.67C208.703 73.67 208.265 73.5619 207.874 73.3455C207.489 73.1292 207.186 72.8238 206.965 72.4293C206.744 72.0284 206.634 71.5703 206.634 71.0549C206.634 70.5395 206.744 70.0846 206.965 69.6901C207.186 69.2956 207.489 68.9901 207.874 68.7738C208.265 68.5575 208.703 68.4493 209.189 68.4493C209.524 68.4493 209.83 68.5066 210.107 68.6211C210.385 68.7356 210.621 68.9074 210.817 69.1365V66.5214H212ZM209.331 72.6488C209.615 72.6488 209.871 72.5852 210.098 72.4579C210.325 72.3243 210.505 72.1366 210.637 71.8948C210.77 71.653 210.836 71.373 210.836 71.0549C210.836 70.7367 210.77 70.4568 210.637 70.215C210.505 69.9732 210.325 69.7887 210.098 69.6614C209.871 69.5278 209.615 69.461 209.331 69.461C209.047 69.461 208.792 69.5278 208.565 69.6614C208.338 69.7887 208.158 69.9732 208.025 70.215C207.893 70.4568 207.827 70.7367 207.827 71.0549C207.827 71.373 207.893 71.653 208.025 71.8948C208.158 72.1366 208.338 72.3243 208.565 72.4579C208.792 72.5852 209.047 72.6488 209.331 72.6488Z" fill="white"/>
<path fill-rule="evenodd" clip-rule="evenodd" d="M58.9959 23.8991C58.9959 24.9953 58.9215 26.0742 58.7772 27.1313C58.5281 29.8298 57.9165 32.9186 56.8435 36.4451C55.2855 41.5654 57.4241 44.7333 59.9302 48.4457C61.192 50.3148 62.547 52.322 63.5703 54.786C64.5887 57.2384 64.4989 60.889 63.4157 64.3437H65.3037C67.9677 64.3437 70.1272 66.4837 70.1272 69.1235C70.1272 71.7633 67.9677 73.9033 65.3037 73.9033H44.7096C41.9481 73.9033 39.7096 71.6647 39.7096 68.9033V52.698C39.7096 49.9563 37.4666 47.7337 34.6998 47.7337C31.933 47.7337 29.6901 49.9563 29.6901 52.698V68.9033C29.6901 71.6647 27.4515 73.9033 24.6901 73.9033H4.82357C2.15959 73.9033 0 71.7633 0 69.1235C0 66.4837 2.15958 64.3437 4.82357 64.3437H6.36929C5.28611 60.889 5.19625 57.2384 6.21472 54.786C7.23797 52.322 8.59298 50.3148 9.8548 48.4457C12.3609 44.7333 14.4995 41.5654 12.9415 36.4451C11.9467 33.1755 11.3484 30.2821 11.068 27.7272C10.8655 26.4807 10.7603 25.2021 10.7603 23.8991C10.7603 10.7 21.5582 0 34.8781 0C48.198 0 58.9959 10.7 58.9959 23.8991ZM26.5751 17.1268C26.9822 15.9249 26.5798 14.5494 25.495 13.7716C24.1661 12.8188 22.3164 13.1237 21.3636 14.4526C20.4109 15.7815 20.7157 17.6312 22.0446 18.584C23.0555 19.3087 24.3676 19.3058 25.3571 18.678C25.574 18.9035 25.7913 19.1449 25.9933 19.3923C25.1953 20.9051 24.8307 22.5584 24.8728 24.1904C24.5734 24.4335 24.2835 24.6484 24.0272 24.8262C23.9571 24.7311 23.8711 24.6453 23.7699 24.5727C23.2499 24.1999 22.5261 24.3192 22.1532 24.8392C21.7804 25.3592 21.8997 26.083 22.4197 26.4558C22.9397 26.8286 23.6635 26.7093 24.0363 26.1893C24.125 26.0657 24.1858 25.9305 24.2201 25.7912C24.4507 25.7587 24.7272 25.732 25.0309 25.7104C25.2303 26.7979 25.6131 27.8524 26.171 28.8235C25.9506 29.0817 25.7009 29.3441 25.4345 29.5772C24.8273 28.8526 23.7833 28.6066 22.8968 29.042C21.8545 29.5539 21.4246 30.8138 21.9365 31.8561C22.4484 32.8984 23.7083 33.3284 24.7506 32.8164C25.5022 32.4473 25.9354 31.6893 25.9266 30.9043C26.3851 30.7075 26.907 30.5274 27.3579 30.4655C27.8261 30.9881 28.358 31.4681 28.9519 31.8939C29.2601 32.1149 29.5767 32.3153 29.9002 32.4956C29.8759 32.6729 29.8419 32.8553 29.7956 33.0317C29.2074 32.8634 28.5586 33.1101 28.2412 33.6649C27.8681 34.3172 28.0945 35.1485 28.7468 35.5216C29.3991 35.8947 30.2303 35.6683 30.6034 35.016C30.8725 34.5457 30.8298 33.9822 30.5405 33.5646C30.6637 33.3727 30.8069 33.1737 30.9576 33.0041C31.8988 33.3888 32.8802 33.6174 33.8662 33.6958C34.0777 34.2387 34.2237 34.811 34.3212 35.341C33.9985 35.462 33.7071 35.6768 33.4912 35.9778C32.9112 36.7867 33.0968 37.9126 33.9057 38.4926C34.7146 39.0725 35.8405 38.8869 36.4204 38.0781C37.0004 37.2692 36.8148 36.1433 36.0059 35.5633C35.893 35.4824 35.774 35.4164 35.6511 35.3649C35.7559 34.8324 35.9182 34.2107 36.0898 33.6195C37.6172 33.3921 39.0901 32.8055 40.371 31.8821C40.7358 32.1242 41.1078 32.3975 41.4536 32.6939C40.614 34.0925 40.7271 35.9285 41.8587 37.2226C43.2624 38.8278 45.7016 38.9913 47.3068 37.5876C48.9121 36.1839 49.0755 33.7447 47.6718 32.1395C46.4838 30.7808 44.554 30.4551 43.0158 31.2381C42.774 30.7858 42.5603 30.3139 42.4279 29.8767C42.4861 29.8003 42.5434 29.7228 42.5997 29.6443C43.9696 27.7336 44.5525 25.4971 44.412 23.3207C44.6301 23.1509 44.8396 22.998 45.0304 22.8656C45.1005 22.9606 45.1865 23.0464 45.2877 23.119C45.8077 23.4918 46.5315 23.3725 46.9043 22.8525C47.2772 22.3325 47.1578 21.6087 46.6378 21.2359C46.1178 20.8631 45.3941 20.9824 45.0212 21.5024C44.9326 21.626 44.8717 21.7612 44.8375 21.9005C44.6593 21.9256 44.4537 21.9473 44.2293 21.9658C43.9985 20.8474 43.5726 19.7677 42.961 18.7822C43.2106 18.4974 43.4941 18.212 43.7944 17.9706C44.6589 18.8213 45.9989 19.0777 47.1492 18.5128C48.6049 17.7978 49.2054 16.0382 48.4904 14.5825C47.7755 13.1268 46.0158 12.5263 44.5601 13.2413C43.2222 13.8984 42.6067 15.4379 43.0709 16.8129C42.6457 16.9919 42.172 17.1531 41.7535 17.2183C41.333 16.7753 40.8648 16.3655 40.35 15.9965C39.9621 15.7183 39.5607 15.4726 39.1491 15.2588C39.1737 15.0621 39.2101 14.8573 39.262 14.66C39.8502 14.8283 40.499 14.5816 40.8164 14.0268C41.1895 13.3745 40.9631 12.5432 40.3108 12.1701C39.6585 11.797 38.8272 12.0234 38.4541 12.6757C38.1851 13.146 38.2278 13.7095 38.5171 14.1271C38.3748 14.3486 38.2059 14.5796 38.0295 14.7639C37.1312 14.4328 36.2005 14.2407 35.2674 14.1827C35.0144 13.5857 34.8452 12.9419 34.7365 12.3507C35.0591 12.2296 35.3505 12.0149 35.5664 11.7139C36.1463 10.905 35.9607 9.7791 35.1519 9.19914C34.343 8.61919 33.2171 8.80477 32.6371 9.61366C32.0572 10.4226 32.2428 11.5484 33.0516 12.1284C33.1646 12.2094 33.2837 12.2754 33.4066 12.3269C33.2868 12.9355 33.0919 13.6606 32.8939 14.3236C30.7792 14.7096 28.7886 15.7888 27.2932 17.5002C27.0479 17.3858 26.8061 17.2613 26.5751 17.1268ZM19.775 22.9813C19.4318 22.2825 18.587 21.9942 17.8882 22.3375C17.1894 22.6807 16.9011 23.5254 17.2443 24.2243C17.5876 24.9231 18.4323 25.2114 19.1311 24.8681C19.83 24.5249 20.1182 23.6802 19.775 22.9813ZM30.453 38.9795C30.7778 38.82 31.1704 38.954 31.3299 39.2788C31.4894 39.6036 31.3555 39.9962 31.0307 40.1557C30.7059 40.3152 30.3132 40.1812 30.1537 39.8564C29.9942 39.5316 30.1282 39.139 30.453 38.9795ZM26.5049 10.6524C26.8481 11.3512 27.6929 11.6395 28.3917 11.2962C29.0905 10.953 29.3788 10.1083 29.0356 9.40944C28.6924 8.71061 27.8476 8.42234 27.1488 8.76556C26.45 9.10879 26.1617 9.95354 26.5049 10.6524ZM47.2295 26.8031C46.9047 26.9626 46.512 26.8287 46.3525 26.5039C46.193 26.1791 46.327 25.7864 46.6518 25.6269C46.9766 25.4674 47.3692 25.6014 47.5287 25.9262C47.6882 26.251 47.5543 26.6436 47.2295 26.8031Z" fill="white"/>
</svg>
